<svg version="1.1" preserveAspectRatio="xMidYMid meet" xmlns="http://www.w3.org/2000/svg"
    xmlns:xlink="http://www.w3.org/1999/xlink" viewBox="-510 -510 1020 1020" width="100%" height="100%"
    style="background: #04c5c7; font-family: sans-serif; font-weight: 900">
    <defs>
        <radialGradient id="grad">
            <stop offset="0%" stop-color="#04c5c7" />
            <stop offset="20%" stop-color="#04c5c7" />
            <stop offset="70%" stop-color="#77eeea" />
            <stop offset="80%" stop-color="#77eeea" />
            <stop offset="100%" stop-color="#04c5c7" />
        </radialGradient>
        <symbol id="quart-admin" viewBox="0 0 587 697" width="200" height="200">
            <g transform="matrix(1.33 0 0 -1.33 0 697)">
                <g transform="scale(.1)">
                    <path
                        d="m28.5 15.2c-11.2 6.76-21.8 19.5-24 27.8-2.22 8.98-4.49 1171-4.49 2583v2567l36.8 36.8 1072-3.75 51-49.5c28.5-27 60-54.8 71.2-61.5 18.8-12 115-12.7 1268-12.7 686 0 1254-2.27 1263-4.49 9.03-2.27 23.2-18 32.3-34.5 15-28.5 15.7-39.8 15.7-239 0-180 1.48-211 12-221 9.77-10.5 39.8-12 212-12 223 0 240-3.01 255-46.5 5.97-16.5 8.24-371 8.24-1196 0-1120 0.74-1174 13.5-1195 7.5-12.7 27-33 43.5-45.7 15.7-13.5 31.5-29.3 34.5-36 6.02-15 7.5-2008 1.53-2031-2.27-8.24-13.5-21-25.5-27.8-19.5-12-174-12.7-2169-12.7-1990 0.738-2149 1.48-2168 12.7zm4219 131 19.5 15v919c0 725-2.27 921-8.98 929-5.28 5.97-15 17.2-21 26.2-6.02 8.24-15 15.7-19.5 15.7s-23.2 17.3-41.2 38.2c-18 21-61.5 66-96 99.8-34.5 33-121 118-191 187-70.5 69.7-136 133-147 141-18.8 14.3-101 92.3-413 396-76.5 74.3-147 142-158 151-10.5 8.24-75.7 70.5-146 139-322 314-406 394-425 408-11.2 8.98-72 67.5-137 131-145 142-383 372-413 399-12 10.5-79.5 75-150 143-69.8 67.5-188 182-262 254s-194 188-267 259c-72.8 71.2-141 136-153 146-11.2 8.98-51 45-87 80.2-36.8 35.2-71.2 68.2-77.3 72.7-8.98 7.5-111 9.77-454 9.77h-444l-14.3-17.3c-13.5-15.7-13.5-81-14.3-2470v-2454l19.5-15 20.3-15.7h4060zm-93 2211c5.23 9.72 7.5 348 7.5 1041 0 1023 0 1027-15 1043-15 15.7-21 16.5-165 16.5-125 0-151-1.48-161-12-10.5-10.5-12-103-12-908 0-644 2.27-901 8.24-912 8.24-15 35.3-42.8 64.5-65.3 7.5-5.97 60.8-57 119-115 81.8-80.3 109-104 125-104 12 0 22.5 6.02 27.7 14.3zm-498 476c9.03 9.72 10.5 161 10.5 1061 0 1041 0 1051-15 1066s-24.8 15-1111 15c-1173 0-1117 1.48-1117-35.2 0-13.5 341-352 382-379 18-12.8 64.5-13.5 686-13.5 660 0 667 0 691-15.7 48-29.3 39.8-88.5-15.7-115-21.8-10.5-88.5-12-579-12-421 0-557-2.27-563-8.98-5.23-5.28-8.98-15.8-8.98-24 0-15 344-357 384-382 19.5-12 51.8-12.7 387-12.7 333 0 368-1.48 391-13.5 32.3-15.7 44.3-49.5 29.3-80.2-6.02-12-15.7-23.2-21.8-26.2s-18.8-8.98-27.7-13.5c-12-6.71-95.3-8.98-279-8.98-229 0-262-1.48-271-12-7.5-9.77-7.5-14.3 1.48-28.5 9.77-16.5 165-168 475-465 73.5-70.5 199-191 278-267 259-250 267-256 294-229z"
                        fill="#fff" />
                </g>
            </g>
        </symbol>
        <symbol id="quart-assur" viewBox="0 0 681.33 688" width="200" height="200">
            <g transform="matrix(1.3333 0 0 -1.3333 0 688)">
                <g transform="scale(.1)" fill="#fff">
                    <path
                        d="m1384.8 18.75c-6.75 7.5-19.49 47.27-27.77 88.52-35.98 175.46-85.47 320.23-130.47 380.23-61.52 82.5-183.75 214.49-657.03 710.23-383.24 401.25-495 522.78-506.25 550.51-28.48 68.24-50.23 454.49-60.742 1088.2-4.4883 288.01-4.4883 293.29 11.25 335.28 48.75 127.5 190.51 153.75 326.25 60 41.25-28.52 97.5-105.74 120-165 16.524-42.78 126.76-576.76 142.5-692.27l5.274-35.23 52.5 26.99c65.976 33.75 123.75 40.51 172.5 18.75 68.238-30.74 218.99-170.23 380.98-354.77 56.99-64.49 71.99-76.48 165.74-131.99 259.53-153.01 410.27-288.01 514.53-458.98 71.99-118.52 90.74-195.74 100.47-414.03 11.25-247.5 27.03-405 75-744.72 16.52-114.77 30-217.5 30-229.49 0-41.25-57.73-62.27-85.47-31.531-15 16.531-37.5 144.03-72.03 413.24-30.74 243.75-44.22 387.78-52.5 585.79-4.49 101.99-11.99 187.5-19.49 213.75-45.74 178.47-210 369.72-443.24 514.49-36.02 22.5-98.25 60.74-138.75 83.24-63.75 37.5-82.5 53.24-162 141.76-107.26 118.47-246.01 256.48-296.25 293.98-54.02 39.77-93 34.49-171.01-22.5l-36.758-26.99v-66.02c0-63.75 0.782-66.71 29.258-109.49 45-67.5 150.74-182.22 280.51-305.97 103.51-99.03 117.73-115.51 117.73-135.79 0-29.21-20.23-48.75-50.23-48.75-19.5 0-41.25 17.27-130.51 100.51-159.73 149.26-283.48 288.01-326.25 367.5-19.488 35.28-20.976 47.27-26.25 154.49-6.758 129.77-20.238 219.77-74.258 487.5-20.23 101.25-43.48 220.51-52.5 265.51-25.468 130.51-68.242 202.5-143.98 240-65.238 33.01-117 21.02-134.26-30.74-18.75-57.73 11.992-1087.5 39.024-1288.5l8.238-59.21 64.5-71.25c98.238-107.27 180-192.78 503.98-533.29 433.52-453.75 555.78-587.96 606.76-665.23 30.74-45.738 63.75-141.02 102.77-293.24 36.72-142.5 40.47-187.5 19.49-206.25-18-16.531-56.25-16.531-71.25 0.7383z" />
                    <path
                        d="m3019.8 18.75c-17.26 18.75-16.52 24.77 17.23 261.76 48.01 339.72 63.75 497.22 75 744.72 9.77 218.29 28.52 295.51 100.51 414.03 104.26 170.97 255 305.97 514.49 458.98 93.75 55.51 108.75 67.5 165.78 131.99 161.99 184.54 312.74 324.03 380.98 354.77 48.75 21.76 106.52 15 172.5-18.75l52.5-26.99 5.27 35.23c15.74 115.51 125.98 649.49 142.5 692.27 45.74 120 148.48 208.47 257.97 221.25 81.76 9.72 158.28-37.5 188.28-116.25 15.74-41.99 15.74-47.27 11.25-335.28-10.51-633.75-32.26-1020-60.78-1088.2-11.25-27.73-122.97-149.26-506.25-550.51-473.24-495.74-595.47-627.73-656.99-710.23-45-60-94.49-204.77-130.51-380.23-8.24-41.25-20.98-81.02-27.73-88.52-15.75-17.27-56.25-17.27-72 0-19.49 21.762-15.74 65.23 20.24 205.51 39.02 152.22 71.99 247.5 102.77 293.24 50.98 77.27 173.24 211.48 606.72 665.23 324.02 340.51 405.78 426.02 504.02 533.29l64.5 71.25 8.24 59.21c17.26 130.51 33.75 505.51 42.77 990 5.98 298.52 3.75 318.01-34.53 337.5-31.48 16.53-59.22 14.26-103.48-8.24-75.74-37.5-118.51-109.49-144.02-240-8.98-45-32.23-164.26-52.5-265.51-53.98-267.73-67.5-357.73-74.22-487.5-5.27-107.22-6.76-119.21-26.25-154.49-42.77-79.49-166.52-218.24-326.25-367.5-92.26-86.25-111.01-100.51-132.03-100.51-29.22 0-48.75 19.54-48.75 49.54 0 19.49 17.27 38.98 117.77 135 129.73 123.75 235.51 238.47 280.51 305.97 28.48 42.78 29.22 45.74 29.22 109.49v66.02l-36.72 26.99c-78.01 56.99-117.03 62.27-171.01 22.5-50.24-37.5-188.99-175.51-296.25-293.98-79.5-88.52-98.25-104.26-162-141.76-40.5-22.5-102.77-60.74-138.75-83.24-233.24-144.77-397.5-336.02-443.24-514.49-7.5-26.25-15-111.76-19.53-213.75-8.24-198.01-21.72-342.04-52.5-585.79-34.49-269.21-56.99-396.71-71.99-413.24-16.49-18.008-56.99-18.75-72.74-0.7383z" />
                    <path
                        d="m2861.6 2187c-12.03 13.52-12.77 68.24-12.03 813.75 0 439.49 2.27 805.51 5.27 812.27 8.99 25.51 27 39.72 50.98 39.72 48.75 0 48.75 1.53 48.75-290.97v-264.03h56.25c65.27 0 95.27 12.04 112.5 45 17.27 33.01 17.27 792.04 0 825-23.98 46.53-5.23 45-570 45-564.73 0-545.98 1.53-570-45-17.23-32.96-17.23-791.99 0-825 15.78-30.74 47.27-45 100.51-45h45l2.26 284.26c2.23 266.99 3.01 285 16.49 300 18.01 19.49 57.77 21.02 75 2.27 11.25-12.78 11.99-76.53 10.51-824.26-2.27-785.23-3.01-811.48-16.49-826.48-18.75-20.28-57.77-21.02-75-1.53-12.77 13.52-13.51 46.53-12.77 483.01l1.52 468.01-49.53 4.49c-80.98 7.5-107.97 19.49-154.49 65.23-64.49 64.54-63.01 52.5-63.01 502.5s-1.48 438.01 63.01 503.29c66.76 65.97 38.24 62.96 626.99 62.96s560.27 3.01 627.03-62.96c64.49-65.28 62.97-53.29 62.97-503.29s1.52-437.96-62.97-502.5c-48.01-47.96-78.01-59.21-167.26-65.97l-58.52-3.75-1.48-489.03c-2.27-469.49-3.01-490.46-16.49-505.46-18.01-20.28-57.77-21.02-75-1.53z" />
                    <path
                        d="m1307.6 2233.5c-13.48 15-14.26 35.97-16.49 482.96l-1.52 466.53-62.23 3.75c-92.26 5.97-122.26 17.22-171.01 65.97-63.752 63.01-63.01 59.26-63.01 442.5 0 383.29-0.742 379.54 63.01 442.5 24.02 24.03 54.76 46.53 71.99 52.5 22.5 7.5 94.53 10.51 298.52 12.78l267.73 3.01v-113.29h-262.5c-288.75 0-296.25-0.74-318.75-45-17.23-32.96-17.23-671.99 0-705 17.27-33.75 46.52-45 115.51-45h60l2.26 239.26c2.23 222.78 3.01 240 16.49 255 18.75 21.02 57.77 21.02 76.52 0 13.48-15 14.22-38.98 14.22-779.26 0-740.23-0.74-764.21-14.22-779.21-18.75-21.02-57.77-21.02-76.52 0z" />
                    <path
                        d="m1631.6 2232c-12.03 12.78-12.77 50.28-12.03 480 0 255.74 2.27 471.76 5.27 478.52 13.48 39.72 62.23 53.98 87.74 25.51 11.25-12.78 12.77-53.29 11.99-479.26 0-256.53-2.23-471.76-5.23-479.26-14.26-39.77-62.27-53.98-87.74-25.51z" />
                    <path
                        d="m2522.6 2233.5c-13.48 15-14.26 34.49-14.26 490.46 0 456.02 0.78 475.51 14.26 490.51 9.02 9.77 23.24 15.74 38.24 15.74s29.26-5.97 38.28-15.74c13.48-15 14.22-34.49 14.22-490.51 0-455.97-0.74-475.46-14.22-490.46-9.02-9.77-23.28-15.79-38.28-15.79s-29.22 6.02-38.24 15.79z" />
                    <path
                        d="m3400.1 2233.5c-13.48 15-14.26 34.49-14.26 490.46 0 456.02 0.78 475.51 14.26 490.51 9.02 9.77 23.24 15.74 38.24 15.74s29.26-5.97 38.28-15.74c13.48-15 14.22-34.49 14.22-490.51 0-455.97-0.74-475.46-14.22-490.46-9.02-9.77-23.28-15.79-38.28-15.79s-29.22 6.02-38.24 15.79z" />
                    <path
                        d="m3745.1 2233.5c-13.48 15-15 41.99-23.24 568.47-4.5 303.75-8.99 648.75-8.99 766.53-0.78 198.75 0 215.23 12.74 226.48 19.49 18.01 56.25 15.74 73.51-3.01 13.48-15 14.22-32.22 16.49-255l2.26-239.26h60c38.99 0 67.5 3.75 81.72 11.25 45 23.29 45 23.29 45 386.25 0 363.01 0 363.01-45 386.25-17.97 9.77-64.49 11.25-282.73 11.25h-261.02v113.29l266.25-3.01c202.5-2.27 273.75-5.28 296.25-12.78 17.27-5.97 48.01-28.47 72.03-52.5 63.75-62.96 62.97-59.21 62.97-442.5 0-383.24 0.78-379.49-62.97-442.5-48.01-47.96-78.01-59.21-168.75-65.97l-59.26-3.75 5.24-353.24c8.24-601.53 8.24-580.51-6.76-597.04-17.97-20.23-56.99-19.49-75.74 0.79z" />
                    <path
                        d="m1612.1 4356.8c-137.97 15.74-266.99 143.98-283.48 283.47-12.77 113.29 18.75 209.26 95.24 285.79 131.99 131.99 341.99 131.99 474.02 0 131.99-132.04 131.99-342.04 0-474.03-76.52-75.74-172.5-108.01-285.78-95.23zm132.03 116.25c50.24 17.22 115.47 82.5 132.74 132.73 6.75 20.28 12.73 57.78 12.73 83.24 0 69.03-17.97 113.29-66.72 162.04s-93.01 66.71-162.03 66.71c-25.47 0-62.97-5.97-83.24-12.73-50.24-17.27-115.51-82.5-132.74-132.73-16.52-47.27-16.52-119.26 0-166.53 16.49-48.01 82.5-115.51 129.73-132.73 45-15.74 123.75-15.74 169.53 0z" />
                    <path
                        d="m3389.6 4356.8c-137.97 15.74-266.99 143.98-283.48 283.47-12.77 113.29 18.75 209.26 95.24 285.79 131.99 131.99 341.99 131.99 474.02 0 131.99-132.04 131.99-342.04 0-474.03-76.52-75.74-172.5-108.01-285.78-95.23zm132.03 116.25c50.24 17.22 115.47 82.5 132.74 132.73 6.75 20.28 12.73 57.78 12.73 83.24 0 69.03-17.97 113.29-66.72 162.04s-93.01 66.71-162.03 66.71c-68.98 0-113.24-17.96-161.99-66.71s-66.76-93.01-66.76-162.04c0-25.46 6.02-62.96 12.77-83.24 16.49-48.01 82.5-115.51 129.73-132.73 45-15.74 123.75-15.74 169.53 0z" />
                    <path
                        d="m2512.1 4491.8c-137.97 15.74-266.99 143.98-283.48 283.47-12.77 113.29 18.75 209.26 95.24 285.79 131.99 131.99 341.99 131.99 474.02 0 131.99-132.04 131.99-342.04 0-474.03-76.52-75.74-172.5-108.01-285.78-95.23zm132.03 116.25c50.24 17.22 115.47 82.5 132.74 132.73 6.75 20.28 12.73 57.78 12.73 83.24 0 69.03-17.97 113.29-66.72 162.04s-93.01 66.71-162.03 66.71c-68.98 0-113.24-17.96-161.99-66.71s-66.76-93.01-66.76-162.04c0-25.46 6.02-62.96 12.77-83.24 16.49-48.01 82.5-115.51 129.73-132.73 45-15.74 123.75-15.74 169.53 0z" />
                </g>
            </g>
        </symbol>
        <symbol id="quart-talen" viewBox="0 0 469.33 672" width="200" height="200">
            <g transform="matrix(1.3333 0 0 -1.3333 0 672)">
                <g transform="scale(.1)" fill="#fff">
                    <path
                        d="m1494 4.8789c-555 22.5-1013.2 465-1049.2 1012.5-33.75 521.25 293.24 982.5 799.49 1128 98.98 27.73 186.76 37.5 345.74 37.5l151.48-0.78v209.26l-251.99 2.26-251.99 2.23-15 18.75c-56.99 72.03-1200.7 1620.8-1210.5 1638.8l-11.988 23.28 218.24 447.74c120 246.01 222.78 458.98 228.75 473.98 6.762 15.78 19.492 29.26 30.742 33.75 27.04 10.51 2538 10.51 2565 0 12.04-4.49 24.03-17.97 31.53-35.23 5.97-15.75 108.01-229.5 225-474.77l213.75-446.25-13.52-24.73c-8.24-13.51-272.22-381.01-588.01-816.75-315.74-435-578.24-799.5-584.21-808.52-19.54-31.48-36.76-33.75-259.54-33.75h-213.75v-210h28.52c40.51 0 150.74-19.49 213.75-36.72 446.99-126.76 769.49-519.02 799.49-974.26 9.77-151.52-7.5-283.51-56.25-429.02-128.98-382.5-476.99-668.99-884.26-727.5-53.98-7.5-355.46-13.48-461.25-9.7305zm517.5 125.98c402.78 90.782 705 408.01 769.54 806.25 13.47 81.761 13.47 233.28 0 315-71.25 438.01-438.01 781.52-879.77 822.77l-46.48 4.5-2.27-117c-2.27-131.25-8.98-147.77-54.77-147.77-45 0-52.5 17.27-54.72 138.75l-2.27 108.01-40.51 4.49c-71.99 9.02-222.73-30.74-341.25-90-249.72-124.49-431.25-340.47-510.74-606.72-49.488-165-49.488-384.02 0-549.02 104.26-349.5 399.03-620.98 746.99-688.48 33.01-6.02 66.76-12.77 75-15 36.02-8.282 286.53 1.48 341.25 14.218zm-795 39.762c-285.74 196.49-443.24 434.26-499.49 754.5-15 85.499-15 253.51 0 339.02 56.25 320.24 211.53 555 499.49 754.49 17.27 11.99 15 11.99-22.5-0.74-154.49-51.01-337.5-184.53-441.71-323.28-138.75-182.23-203.29-372.73-203.29-600 0-227.23 64.54-417.73 203.29-600 102.73-136.49 279.72-266.25 437.96-323.24 46.53-16.492 49.54-16.492 26.25-0.75zm955.51 2343c-5.23 8.25-228.75 326.25-1287 1832.2-69.77 99.02-181.48 258.01-248.24 354.02-66.762 95.98-124.49 173.24-127.5 172.5-3.012-0.74-92.274-178.51-197.27-395.27-176.25-360.74-191.25-394.49-182.22-409.49 5.968-8.99 268.47-364.5 583.47-789.73l573.01-773.28h445.51c354.72 0 444.72 2.27 440.23 9.02zm658.52 787.5c299.26 413.99 548.24 758.99 553.47 768.01 8.29 13.48-11.25 58.48-180 410.24-104.21 217.5-191.99 395.23-194.21 394.49-6.76 0-1182-1680-1180.5-1686.8 3.01-11.25 446.99-637.5 451.48-637.5 3.01 0 250.51 338.28 549.77 751.52zm-753.01 429.73 300 427.5-311.25 2.26c-171.02 0.75-448.52 0.75-616.48 0l-305.28-2.26 307.5-437.23c249.03-354.76 309.03-435 316.53-427.5 5.23 5.24 144.72 201.76 308.98 437.23zm607.5 866.25c124.49 177.03 226.48 324.02 226.48 326.25 0 2.26-518.24 3.75-1152 3.75-668.24 0-1150.5-2.97-1149-6.72 1.476-3.75 103.47-150.78 227.22-326.25l224.26-319.53h1397.3z" />
                    <path
                        d="m1404 517.11c-8.24 8.282-15 19.532-15 24.02 0 5.242 13.52 93.75 31.53 195.75l31.48 186.01-140.23 140.23c-77.27 78.01-140.28 144.77-140.28 150 0 15.75 17.27 45.75 29.26 51.02 6.76 2.23 94.49 17.23 195.74 32.23l183.75 26.99 82.5 167.26c45.79 91.49 87.78 171.76 95.28 178.52 15.74 15.74 48.75 15.74 64.49 0 7.5-6.76 50.23-87.03 95.23-178.52l82.5-167.26 183.75-26.99c101.25-15 189.03-30 195.79-32.23 11.99-5.27 29.21-35.27 29.21-51.02 0-5.23-62.96-71.99-140.23-150l-140.23-140.23 31.48-186.01c18.01-102 31.48-190.51 31.48-195.75 0-16.52-29.21-39.02-50.23-39.02-11.25 0-92.27 38.282-183.75 86.25-89.26 47.262-165 86.25-167.27 86.25-2.22 0-77.96-38.988-167.22-86.25-91.53-47.968-172.5-86.25-183.75-86.25s-26.99 6.762-35.28 15zm386.25 270c7.5 0 72.04-30.738 143.29-68.238 99.72-51.762 130.46-64.492 130.46-55.512 0 6.762-10.46 73.52-22.5 147.77-12.73 74.262-20.97 140.98-18.75 148.48 2.27 7.5 51.76 60.001 110.28 116.25 57.73 56.25 104.26 103.52 102.73 105-1.48 1.52-65.23 11.25-141.76 22.5-79.49 11.25-146.25 24.76-156.71 31.52-11.25 6.76-40.51 59.26-81.02 141.76-34.49 71.99-64.49 130.47-66.02 130.47-1.48 0-31.48-58.48-65.97-130.47-40.51-82.5-69.77-135-81.02-141.76-10.51-6.76-77.22-20.27-156.76-31.52-76.48-11.25-140.23-20.98-141.71-22.5-1.53-1.48 45-48.75 102.73-105 58.52-56.25 108.01-108.75 110.23-116.25 2.27-7.5-5.97-74.218-18.75-148.48-11.99-74.25-22.5-141.01-22.5-147.77 0-8.98 30.79 3.75 130.51 55.512 71.25 37.5 135.74 68.238 143.24 68.238z" />
                    <path
                        d="m665.23 3607.1c-21.71 8.28-25.46 12.77-183.75 249.77-89.21 134.25-143.98 223.51-144.72 234.76 0 44.22 59.258 65.24 90 30.74 8.238-9.02 79.488-113.24 158.98-231.76 103.52-156.01 143.24-221.24 143.24-236.99 0-32.26-34.492-57.77-63.75-46.52z" />
                </g>
            </g>
        </symbol>
        <symbol id="quart-activ" viewBox="0 0 852 582.67" width="200" height="200">
            <g transform="matrix(1.3333 0 0 -1.3333 0 582.67)">
                <g transform="scale(.1)" fill="#fff">
                    <path
                        d="m3356.4 4.2617c-190.47 9.7188-424.5 56.988-605.24 123.75-110.23 40.508-316.48 144.72-417.73 211.48-87.03 56.992-200.28 144.03-277.5 213.75l-37.5 33.75-46.53-44.258c-75.74-69.718-166.48-105.74-272.22-105.74-113.28 0-201.76 36.762-282.03 116.99-52.5 52.5-83.99 102.04-107.23 171.02-6.76 19.488-15 36.02-19.49 36.762-3.75 0.738-71.25-1.532-150-4.492-236.25-8.29-478.52 12.73-652.5 56.25-349.53 86.992-516.76 276.71-484.53 546.71 33.75 278.29 262.5 594.77 687.03 949.54 177.73 148.47 484.49 363.75 727.5 509.21l116.99 70.51 63.01 126.02c170.97 344.26 414.72 619.49 735 829.49 101.25 66.76 307.5 171.02 417.73 211.48 489.77 180 1053 166.53 1534.5-36.71l82.5-34.54 96.76 18.75c240 46.53 521.25 82.5 711.02 90.79 53.98 2.22 115.47 5.97 137.22 8.24l39.03 3.75 23.98 46.48c32.27 64.49 115.51 146.25 178.52 175.51 64.49 30 111.72 41.25 180 41.25 113.24 0 201.72-36.76 281.99-116.99 71.99-71.99 123.01-176.25 123.01-251.99 0-24.77 3.75-29.26 47.97-58.52 138-90.74 201.75-207.73 201.75-368.98 0-163.52-80.23-345.79-245.23-561.02-84.77-109.49-325.51-351.76-461.25-462.73-55.51-45.79-111.02-90.79-123.01-101.25l-21.76-19.54 9.03-59.21c24.72-164.26 20.23-435.79-10.51-620.28-36.76-218.24-88.52-376.48-188.24-579.72-168.01-342.04-414.03-619.54-735-830.28-101.25-66.758-307.5-170.97-417.78-211.48-174.72-64.492-412.5-114.03-578.98-121.53-50.27-1.4805-104.26-4.4883-120.74-5.9688-16.53-0.74219-79.53 0.73828-139.53 3.75zm413.28 122.22c109.49 17.27 278.24 60 377.22 95.282 46.53 16.48 138.01 56.988 204.77 89.258 391.48 191.99 710.98 511.48 903.01 902.96 69.72 143.29 109.49 249.77 144.72 391.53 45 180 54.03 259.49 54.03 483.01 0 109.49-3.01 214.49-6.02 234.72l-6.01 35.28-46.49-33.75c-25.51-18.75-125.23-86.25-220.51-150.79l-174.72-116.25v-49.49c0-63.75-18.75-189.72-42.03-280.51-142.5-569.21-601.49-1002.7-1184.2-1120.5-179.26-36.758-413.28-36.758-592.5 0-241.53 48.75-458.28 148.47-654.03 301.48l-69.72 53.98-159.03-37.5c-87.73-20.23-167.22-38.98-175.5-40.46-15-3.008-16.49-9.032-17.23-55.508 0-29.262-7.5-72.782-15.74-99.032l-15-47.96 46.48-45c175.51-168.01 439.49-329.26 678.01-414.77 110.98-40.508 270.74-79.488 381.76-94.488 49.49-6.762 100.47-13.52 112.5-15 56.99-7.5 401.25 2.218 476.25 13.468zm-1941 444.77c63.01 30 113.24 80.23 143.99 144.77 21.75 45 23.28 54.718 23.28 131.25 0 76.48-1.53 86.25-23.28 131.25-30.75 64.49-80.98 114.72-143.99 144.72-46.48 22.5-56.25 24.03-128.98 24.03-72.78 0-82.5-1.53-129.03-24.03-63-30-113.24-80.23-143.98-144.72-21.76-45-23.24-54.77-23.24-131.25 0-73.52 2.22-87.04 20.23-125.28 37.5-80.968 83.99-125.23 168.75-160.51 37.5-15.742 53.24-17.96 114.77-16.48 62.22 2.27 77.97 5.23 121.48 26.25zm1850.2 126.02c627.77 89.21 1114.5 574.49 1205.3 1202.2 6.76 46.53 10.51 86.25 8.98 88.52-2.22 1.48-71.25-34.49-153-81.76-652.5-373.52-1398.8-692.27-2067-882.73-71.99-21.02-86.25-27.04-79.49-35.282 16.49-20.226 160.51-111.76 234.77-150 135.74-68.976 291.72-118.47 440.97-140.23 95.28-14.262 312.78-14.262 409.5-0.742zm-2394.7 173.98c5.98 2.27 10.51 12.73 10.51 23.98 0 30 20.97 95.282 47.22 147.04 30 60.74 115.51 144.72 174.77 173.24l45.74 21.76-36.01 90c-64.5 161.25-113.25 360.74-134.22 547.5-10.51 96.71-10.51 338.98 0 435 11.99 103.47 40.47 255 66.72 347.22l21.75 76.53-35.23-19.54c-78.01-45.74-293.24-187.5-399.02-263.24-707.97-505.51-1052.2-995.23-910.47-1295.2 77.219-163.52 330-265.51 719.22-289.49 97.5-6.02 409.53-2.27 429.02 5.23zm945.74 145.51c73.52 17.22 135 32.22 136.49 33.75 1.52 1.48-16.49 23.24-38.99 48.01-113.98 122.96-228.75 317.22-290.23 493.47-96.02 270-111.02 588.01-40.51 864.77 74.26 296.25 236.99 562.5 470.23 770.23 24.03 21.76 42 39.03 39.77 39.03-24.77 0-544.49-258.01-750.74-372.04l-130.51-72.73-23.24-60.74c-31.53-81.02-78.01-264.77-94.53-375.74-20.24-128.29-20.24-456.76 0-585 24.76-162.04 81.75-361.53 145.5-507.04l15-33.75 43.52-1.48c59.26-1.48 109.49-13.52 168.01-41.25 65.23-30 152.22-117.73 182.97-183.75 12.03-25.51 24.76-46.48 28.51-46.48 3.01 0 66.02 13.468 138.75 30.74zm416.25 108.75c570 163.47 1136.2 393.01 1719.8 695.23 149.22 77.27 413.98 225.74 497.97 278.24l33 21.02-4.49 83.98c-6.01 95.28-31.48 228.01-63.75 324.77-173.24 516.02-608.98 878.98-1149.8 957.73-104.22 15.79-299.22 15.79-403.48 0-598.52-86.99-1062-520.46-1191-1112.2-25.5-118.52-33-353.24-14.25-476.99 43.51-297.04 174.76-567.04 378.75-778.52 18.75-19.49 38.28-35.23 43.51-35.23 5.24 0 74.26 18.75 153.75 41.99zm2489.3 1147.5c198.75 133.47 284.26 198.01 284.26 215.97 0 27.04-50.28 207.04-81.76 293.29-67.5 182.22-195 406.48-315.74 555.74-70.51 86.25-187.5 205.51-273.75 278.24-87.03 72.73-234.03 173.24-328.52 224.26l-66.76 35.23-75.74-16.48c-130.51-29.26-370.51-90-505.51-128.24-135-39.03-393.75-119.26-398.98-123.75-1.52-1.53 51.76-3.01 117.73-3.01 750-1.53 1388.2-555 1497-1299 6.75-44.21 12.03-89.21 12.03-99.72 0-24.77-5.28-26.99 135.74 67.5zm476.99 353.98c345 287.27 576.02 571.53 646.49 796.53 54.76 173.24 21.01 324.72-91.49 405.74-33.01 23.98-42.73 26.99-42.73 11.99 0-5.23-12.03-34.49-26.25-64.49-19.53-40.51-41.25-70.51-81.02-109.49-81.01-81.02-168.75-117.78-282.73-117.78-113.28 0-201.76 36.76-282.03 116.99-80.24 80.28-122.23 174.77-123.75 277.5l-0.75 51.76-121.48-4.49c-167.27-6.76-510.74-48.01-663.75-78.75l-24.77-5.23 80.28-51.76c183.75-117.78 377.22-291.76 506.25-454.49 173.24-218.29 308.98-480.79 378.75-731.25 32.97-118.52 32.22-116.25 36.72-116.25 2.26 0 43.51 32.96 92.26 73.47zm-3752.3 441.76c681.01 361.48 1413.8 646.48 2138.3 831.02 171.72 44.21 185.23 48.75 165 56.25-107.27 41.25-265.51 81.71-401.25 102.73-124.53 19.49-454.53 18.75-581.25-0.74-208.52-32.27-392.27-90-585.78-184.49-311.25-153.01-577.5-386.25-770.98-675-65.27-96.76-129.77-210-120.74-210 2.97 0 73.47 35.97 156.72 80.23zm4003.5 615c63.01 30 113.24 80.23 143.99 144.77 21.75 45 23.28 54.72 23.28 131.25 0 76.48-1.53 86.25-23.28 131.25-30.75 64.49-80.98 114.72-143.99 144.72-46.48 22.5-56.25 24.03-128.98 24.03-72.78 0-82.5-1.53-129.03-24.03-63-30-113.24-80.23-143.98-144.72-21.76-45-23.24-54.77-23.24-131.25 0-73.52 2.22-87.04 20.23-125.28 37.5-80.97 83.99-125.23 168.75-160.51 37.5-15.74 53.24-17.96 114.77-16.48 62.22 2.27 77.97 5.23 121.48 26.25z" />
                    <path
                        d="m3420.2 806.76c-13.48 15-14.22 29.258-14.22 205.51s0.74 190.46 14.22 205.46c9.02 9.77 23.28 15.79 38.28 15.79s29.22-6.02 38.24-15.79c13.48-15 14.26-29.21 14.26-205.46s-0.78-190.51-14.26-205.51c-9.02-9.774-23.24-15.742-38.24-15.742s-29.26 5.968-38.28 15.742z" />
                    <path
                        d="m3423.9 1787.7c-95.24 14.26-228.75 120-260.24 205.51-33.01 87.78-18.01 174.77 48.01 273.01 18.01 26.99 33.01 52.5 33.01 56.25s-78.01 123.01-173.28 265.51c-107.97 161.25-173.25 266.25-173.25 277.5 0 44.26 58.52 64.49 89.26 30.74 8.24-8.98 85.51-122.27 171.76-251.25l155.98-235.51 23.28 26.25c11.99 13.52 66.72 78.01 121.48 141.76 184.49 218.24 502.5 558.75 533.99 573.01 36.01 16.48 71.25-9.77 69.76-51.76-1.48-32.27-124.49-525.74-177.73-710.23-51.76-181.53-117.78-378.75-147.03-439.54-29.22-62.22-80.24-117.73-131.25-142.5-45-21.71-116.25-29.21-183.75-18.75zm120 105.79c74.25 20.97 114.02 101.25 210.78 421.48 56.99 188.98 168.75 613.52 161.99 613.52-3.01 0-213.75-230.28-301.52-330-178.48-201.76-320.24-383.29-347.23-443.29-18.75-39.72-20.27-96.71-3.75-131.25 15-31.48 66.76-79.49 109.49-101.25 67.5-34.49 120-43.47 170.24-29.21z" />
                    <path
                        d="m3413.4 2047.3c-40.51 39.72-12.03 108.75 45 108.75 36.72 0 63.75-27.04 63.75-63.75 0-57.04-69.03-85.51-108.75-45z" />
                    <path
                        d="m2199.9 2042.7c-48.75 15-46.48 82.5 4.49 100.51 6.76 3.01 89.26 5.28 182.27 5.28 188.98 0.74 198.01-0.79 198.01-48.75 0-43.52-19.53-52.5-117.03-54.77-47.23-0.74-124.5-2.27-171.72-3.75-47.27-0.74-90.78 0-96.02 1.48z" />
                    <path
                        d="m4367.4 2050.2c-48.75 15-46.48 82.5 4.49 100.51 6.76 3.01 89.26 5.28 182.27 5.28 188.98 0.74 198.01-0.79 198.01-48.75 0-43.52-19.53-52.5-117.03-54.77-47.23-0.74-124.5-2.27-171.72-3.75-47.27-0.74-90.78 0-96.02 1.48z" />
                    <path
                        d="m3420.2 2974.3c-13.48 15-14.22 29.26-14.22 205.51s0.74 190.46 14.22 205.46c9.02 9.77 23.28 15.79 38.28 15.79s29.22-6.02 38.24-15.79c13.48-15 14.26-29.21 14.26-205.46s-0.78-190.51-14.26-205.51c-9.02-9.77-23.24-15.74-38.24-15.74s-29.26 5.97-38.28 15.74z" />
                </g>
            </g>
        </symbol>
    </defs>
    <g>
        <circle cx="0" cy="0" r="600" fill="url(#grad)" />
        <circle cx="0" cy="0" r="500" fill="none" stroke-width="4" stroke="#fff9" />
        <g stroke="none" fill="#0051">
            <path d="M500,0A500,500,0,0,0,0,-500L0,0" />
            <path d="M-500,0A500,500,0,0,0,0,500L0,0" />
        </g>
        <g opacity="0.5" font-size="40" fill="#000">
            <path id="ARC" d="M-550,0A550,550,0 0 0 0,550" stroke="none" fill="none" />
            <path id="ARC2" d="M-525,0A525,525,0 0 1 0,-525" stroke="none" fill="none" />
            <text width="500" transform="rotate(-20)">
                <textPath xlink:href="#ARC">TEMPS &amp; ACTIVITÉS</textPath>
            </text>
            <text width="500" transform="rotate(20)">
                <textPath xlink:href="#ARC2">ADMINISTRATION</textPath>
            </text>
            <text width="500" transform="rotate(130)">
                <textPath xlink:href="#ARC2">ASSURANCES</textPath>
            </text>
            <text width="500" transform="rotate(-130)">
                <textPath xlink:href="#ARC">TALENTS</textPath>
            </text>
        </g>
        <g transform="translate(-100,-100)" opacity="0.4">
            <use href="#quart-admin" x="-200" y="-200" />
            <use href="#quart-assur" x="200" y="-200" />
            <use href="#quart-talen" x="200" y="200" />
            <use href="#quart-activ" x="-200" y="200" />
        </g>
    </g>
</svg>